<?xml version="1.0" standalone="no"?>
<!DOCTYPE svg PUBLIC "-//W3C//DTD SVG 20010904//EN"
 "http://www.w3.org/TR/2001/REC-SVG-20010904/DTD/svg10.dtd">
<svg version="1.0" xmlns="http://www.w3.org/2000/svg"
 width="128.000000pt" height="128.000000pt" viewBox="0 0 128.000000 128.000000"
 preserveAspectRatio="xMidYMid meet">
<metadata>
Created by potrace 1.14, written by Peter Selinger 2001-2017
</metadata>
<g transform="translate(0.000000,128.000000) scale(0.100000,-0.100000)"
fill="#000000" stroke="none">
<path d="M628 1140 c-9 -10 -22 -20 -29 -22 -12 -4 -12 -7 0 -21 7 -9 11 -25
9 -35 -4 -12 1 -18 13 -18 11 0 19 4 19 8 0 5 8 5 18 0 25 -13 46 -4 31 14 -7
8 -7 14 -1 14 23 0 21 31 -3 42 -13 6 -22 14 -20 18 11 17 -23 17 -37 0z"/>
<path d="M311 1022 c-7 -13 -16 -20 -21 -17 -15 9 -22 -15 -10 -30 7 -8 10
-23 8 -32 -4 -15 2 -18 43 -18 26 0 43 3 37 6 -7 4 -5 9 3 12 11 4 11 6 1 6
-10 1 -10 6 -2 21 6 12 16 18 23 14 8 -5 9 -4 2 4 -5 6 -17 12 -25 14 -8 2
-22 12 -31 22 -16 20 -16 19 -28 -2z"/>
<path d="M950 1020 c-6 -11 -15 -18 -20 -15 -15 9 -22 -15 -10 -30 7 -8 10
-21 7 -29 -6 -16 30 -30 39 -15 4 6 10 6 18 0 7 -6 17 -6 26 -1 13 8 13 10 1
10 -11 0 -10 4 5 16 10 8 12 12 4 8 -13 -7 -13 -5 -1 9 11 15 10 18 -13 27
-14 5 -25 15 -24 21 5 21 -20 21 -32 -1z"/>
<path d="M605 845 l-28 -95 -91 0 c-109 0 -126 -7 -91 -38 14 -12 29 -22 33
-22 5 0 17 -8 28 -18 10 -10 33 -27 50 -40 l32 -22 -23 -62 c-36 -99 -39 -124
-18 -132 9 -4 14 -4 11 0 -8 7 133 114 150 114 6 0 12 -3 14 -7 3 -7 102 -77
134 -96 7 -4 15 0 18 9 3 8 2 12 -4 9 -6 -3 -11 3 -11 14 -2 24 -3 29 -14 56
-33 81 -33 83 -22 95 9 10 9 11 -3 6 -8 -4 -2 4 14 18 17 14 35 22 40 19 6 -4
8 -2 3 2 -4 5 12 21 35 36 65 44 60 59 -23 60 -80 2 -80 2 -98 13 -10 6 -12 5
-7 -2 5 -8 2 -10 -8 -6 -9 3 -16 12 -16 20 0 8 -4 14 -8 14 -5 0 -9 6 -10 13
-1 17 -7 38 -19 67 -6 14 -10 27 -8 30 1 3 -5 13 -15 23 -16 17 -18 13 -45
-78z"/>
<path d="M191 702 c-7 -13 -16 -20 -21 -17 -14 9 -23 -15 -10 -30 6 -8 9 -23
6 -33 -5 -14 -2 -18 12 -17 9 0 23 4 29 8 6 4 14 3 18 -3 12 -20 25 -9 25 21
0 20 4 28 12 23 8 -5 9 -2 5 10 -4 10 -7 20 -7 22 0 3 -5 2 -10 -1 -6 -4 -19
4 -29 16 l-18 23 -12 -22z"/>
<path d="M1069 702 c-9 -11 -23 -22 -30 -24 -12 -4 -12 -7 -1 -21 7 -8 12 -23
10 -33 -3 -18 28 -29 38 -13 4 6 10 6 18 0 7 -6 17 -6 26 -1 13 8 13 10 1 10
-11 0 -10 4 5 16 10 8 12 12 4 8 -13 -7 -13 -5 -1 9 11 14 11 18 -5 24 -11 4
-26 15 -34 25 -15 18 -16 18 -31 0z"/>
<path d="M319 401 c-9 -10 -22 -20 -29 -23 -10 -3 -10 -9 -1 -26 7 -12 9 -27
6 -32 -3 -6 1 -10 10 -10 10 0 14 -5 10 -12 -4 -7 0 -5 8 4 8 10 16 15 19 13
13 -13 45 -12 45 1 0 8 -5 14 -11 14 -6 0 -4 5 4 10 8 5 11 10 5 10 -5 0 -4 4
4 9 11 7 9 12 -10 22 -13 7 -29 18 -34 26 -8 11 -13 10 -26 -6z"/>
<path d="M929 402 c-9 -11 -23 -22 -30 -25 -11 -4 -12 -7 -1 -15 7 -5 11 -20
8 -35 -4 -21 -1 -25 15 -24 10 1 19 5 19 9 0 10 33 -3 42 -16 4 -6 8 3 8 21 0
17 5 35 10 38 15 10 12 25 -6 25 -9 0 -23 9 -32 20 -17 21 -17 21 -33 2z"/>
<path d="M628 260 c-9 -10 -22 -20 -29 -22 -12 -4 -12 -7 0 -21 7 -9 11 -23 8
-31 -8 -20 2 -27 22 -16 10 5 23 5 31 0 21 -13 43 -1 29 16 -7 9 -8 14 -1 14
23 0 21 31 -3 42 -13 6 -22 14 -20 18 11 17 -23 17 -37 0z"/>
</g>
</svg>
